<?xml version="1.0" encoding="utf-8"?>
<!-- Generator: Adobe Illustrator 17.0.0, SVG Export Plug-In . SVG Version: 6.00 Build 0)  -->
<!DOCTYPE svg PUBLIC "-//W3C//DTD SVG 1.1//EN" "http://www.w3.org/Graphics/SVG/1.1/DTD/svg11.dtd">
<svg version="1.1" id="Layer_1" xmlns="http://www.w3.org/2000/svg" xmlns:xlink="http://www.w3.org/1999/xlink" x="0px" y="0px"
	 width="129px" height="86px" viewBox="0 0 129 86" enable-background="new 0 0 129 86" xml:space="preserve">
<g>
	<path id="f_1_" fill="#999999" d="M24.053,38.072L24.01,23.443l4.908-0.014l0.72-5.705l-5.645,0.016l-0.011-3.64
		c-0.005-1.651,0.448-2.777,2.818-2.784l3.017-0.01l-0.015-5.101c-0.522-0.066-2.314-0.217-4.398-0.21
		c-4.353,0.013-7.326,2.679-7.312,7.557l0.012,4.205l-4.923,0.014l0.017,5.703l4.923-0.014l0.043,14.629L24.053,38.072z"/>
</g>
<g>
	<path fill="#999999" d="M124.54,29.775c-0.042-0.09-0.081-0.164-0.117-0.224c-0.597-1.076-1.738-2.396-3.423-3.961l-0.036-0.036
		l-0.018-0.018l-0.018-0.018h-0.018c-0.765-0.729-1.249-1.219-1.451-1.47c-0.371-0.478-0.454-0.962-0.251-1.452
		c0.143-0.37,0.681-1.153,1.613-2.348c0.49-0.633,0.878-1.141,1.165-1.523c2.067-2.748,2.963-4.504,2.688-5.269l-0.107-0.179
		c-0.072-0.108-0.257-0.206-0.555-0.296c-0.299-0.09-0.681-0.104-1.147-0.045l-5.161,0.036c-0.084-0.03-0.203-0.027-0.359,0.009
		c-0.155,0.036-0.233,0.054-0.233,0.054l-0.09,0.045l-0.071,0.054c-0.06,0.036-0.125,0.098-0.197,0.188
		c-0.071,0.089-0.131,0.194-0.179,0.314c-0.562,1.446-1.201,2.79-1.918,4.032c-0.442,0.741-0.848,1.383-1.219,1.927
		c-0.37,0.543-0.681,0.944-0.932,1.201c-0.251,0.257-0.478,0.463-0.681,0.618c-0.203,0.156-0.358,0.221-0.466,0.197
		c-0.108-0.024-0.209-0.048-0.305-0.072c-0.167-0.108-0.302-0.254-0.403-0.439c-0.102-0.185-0.17-0.418-0.206-0.699
		c-0.036-0.281-0.057-0.523-0.063-0.726c-0.006-0.203-0.003-0.49,0.009-0.86c0.012-0.371,0.018-0.621,0.018-0.753
		c0-0.454,0.009-0.947,0.027-1.479c0.018-0.532,0.033-0.953,0.045-1.263c0.012-0.311,0.018-0.639,0.018-0.986
		c0-0.347-0.021-0.618-0.063-0.815c-0.041-0.197-0.104-0.388-0.188-0.574c-0.084-0.185-0.206-0.328-0.367-0.43
		c-0.161-0.102-0.362-0.182-0.6-0.242c-0.633-0.143-1.44-0.221-2.42-0.233c-2.222-0.024-3.65,0.12-4.283,0.43
		c-0.251,0.131-0.478,0.311-0.681,0.537c-0.215,0.263-0.245,0.406-0.09,0.43c0.717,0.107,1.225,0.364,1.523,0.771l0.108,0.215
		c0.084,0.155,0.167,0.43,0.251,0.824c0.084,0.394,0.137,0.83,0.161,1.308c0.06,0.872,0.06,1.619,0,2.24
		c-0.06,0.621-0.116,1.105-0.17,1.452s-0.135,0.627-0.242,0.842c-0.108,0.215-0.179,0.347-0.215,0.394
		c-0.036,0.048-0.066,0.078-0.089,0.09c-0.155,0.06-0.317,0.09-0.484,0.09c-0.167,0-0.37-0.084-0.609-0.251
		c-0.239-0.167-0.487-0.397-0.744-0.69c-0.257-0.293-0.547-0.702-0.869-1.228c-0.322-0.526-0.657-1.147-1.004-1.864l-0.287-0.52
		c-0.179-0.334-0.424-0.821-0.735-1.461c-0.311-0.639-0.586-1.258-0.824-1.855c-0.095-0.251-0.239-0.442-0.43-0.573l-0.09-0.054
		c-0.06-0.048-0.155-0.098-0.287-0.152c-0.132-0.054-0.269-0.093-0.412-0.116l-4.911,0.036c-0.502,0-0.842,0.114-1.022,0.341
		l-0.072,0.107c-0.036,0.06-0.054,0.155-0.054,0.287c0,0.131,0.036,0.293,0.108,0.484c0.717,1.685,1.496,3.31,2.339,4.875
		c0.842,1.565,1.574,2.826,2.195,3.781c0.621,0.956,1.255,1.858,1.9,2.706c0.645,0.848,1.072,1.392,1.281,1.631
		c0.209,0.239,0.374,0.418,0.493,0.538l0.448,0.43c0.287,0.287,0.708,0.63,1.263,1.03c0.556,0.4,1.171,0.795,1.846,1.183
		c0.675,0.388,1.461,0.705,2.357,0.95c0.896,0.245,1.768,0.343,2.617,0.296h2.061c0.418-0.036,0.735-0.168,0.95-0.394l0.071-0.09
		c0.048-0.071,0.093-0.182,0.134-0.331c0.042-0.149,0.063-0.314,0.063-0.493c-0.012-0.514,0.027-0.977,0.116-1.389
		c0.089-0.412,0.191-0.723,0.305-0.932c0.114-0.209,0.242-0.385,0.385-0.528c0.143-0.143,0.245-0.23,0.305-0.26
		c0.06-0.03,0.107-0.05,0.143-0.063c0.287-0.096,0.624-0.003,1.013,0.278c0.388,0.281,0.753,0.627,1.093,1.04
		c0.341,0.412,0.75,0.875,1.228,1.389c0.478,0.514,0.896,0.896,1.255,1.147l0.358,0.215c0.239,0.143,0.55,0.275,0.932,0.394
		c0.382,0.119,0.716,0.149,1.003,0.09l4.588-0.072c0.454,0,0.807-0.075,1.057-0.224c0.251-0.149,0.4-0.314,0.448-0.493
		c0.048-0.179,0.051-0.382,0.009-0.61C124.624,30.023,124.582,29.865,124.54,29.775z"/>
</g>
<g>
	<path fill="#FFFFFF" d="M124.54,72.522c-0.042-0.09-0.081-0.164-0.117-0.224c-0.597-1.076-1.738-2.396-3.423-3.961l-0.036-0.036
		l-0.018-0.018l-0.018-0.018h-0.018c-0.765-0.729-1.249-1.219-1.451-1.47c-0.371-0.478-0.454-0.962-0.251-1.452
		c0.143-0.37,0.681-1.153,1.613-2.348c0.49-0.633,0.878-1.141,1.165-1.523c2.067-2.748,2.963-4.504,2.688-5.269l-0.107-0.179
		c-0.072-0.108-0.257-0.206-0.555-0.296c-0.299-0.09-0.681-0.104-1.147-0.045l-5.161,0.036c-0.084-0.03-0.203-0.027-0.359,0.009
		c-0.155,0.036-0.233,0.054-0.233,0.054l-0.09,0.045l-0.071,0.054c-0.06,0.036-0.125,0.098-0.197,0.188
		c-0.071,0.089-0.131,0.194-0.179,0.314c-0.562,1.446-1.201,2.79-1.918,4.032c-0.442,0.741-0.848,1.383-1.219,1.927
		c-0.37,0.543-0.681,0.944-0.932,1.201c-0.251,0.257-0.478,0.463-0.681,0.618c-0.203,0.156-0.358,0.221-0.466,0.197
		c-0.108-0.024-0.209-0.048-0.305-0.072c-0.167-0.108-0.302-0.254-0.403-0.439c-0.102-0.185-0.17-0.418-0.206-0.699
		c-0.036-0.281-0.057-0.523-0.063-0.726c-0.006-0.203-0.003-0.49,0.009-0.86c0.012-0.371,0.018-0.621,0.018-0.753
		c0-0.454,0.009-0.947,0.027-1.479c0.018-0.532,0.033-0.953,0.045-1.263c0.012-0.311,0.018-0.639,0.018-0.986
		s-0.021-0.618-0.063-0.815c-0.041-0.197-0.104-0.388-0.188-0.574c-0.084-0.185-0.206-0.328-0.367-0.43
		c-0.161-0.102-0.362-0.182-0.6-0.242c-0.633-0.143-1.44-0.221-2.42-0.233c-2.222-0.024-3.65,0.12-4.283,0.43
		c-0.251,0.131-0.478,0.311-0.681,0.537c-0.215,0.263-0.245,0.406-0.09,0.43c0.717,0.107,1.225,0.364,1.523,0.771l0.108,0.215
		c0.084,0.155,0.167,0.43,0.251,0.824c0.084,0.394,0.137,0.83,0.161,1.308c0.06,0.872,0.06,1.619,0,2.24
		c-0.06,0.621-0.116,1.105-0.17,1.452s-0.135,0.627-0.242,0.842c-0.108,0.215-0.179,0.347-0.215,0.394
		c-0.036,0.048-0.066,0.078-0.089,0.09c-0.155,0.06-0.317,0.09-0.484,0.09c-0.167,0-0.37-0.084-0.609-0.251
		c-0.239-0.167-0.487-0.397-0.744-0.69c-0.257-0.293-0.547-0.702-0.869-1.228c-0.322-0.526-0.657-1.147-1.004-1.864l-0.287-0.52
		c-0.179-0.334-0.424-0.821-0.735-1.461c-0.311-0.639-0.586-1.258-0.824-1.855c-0.095-0.251-0.239-0.442-0.43-0.573l-0.09-0.054
		c-0.06-0.048-0.155-0.098-0.287-0.152c-0.132-0.054-0.269-0.093-0.412-0.116l-4.911,0.036c-0.502,0-0.842,0.114-1.022,0.341
		l-0.072,0.107c-0.036,0.06-0.054,0.155-0.054,0.287c0,0.131,0.036,0.293,0.108,0.484c0.717,1.685,1.496,3.31,2.339,4.875
		c0.842,1.565,1.574,2.826,2.195,3.781c0.621,0.956,1.255,1.858,1.9,2.706c0.645,0.848,1.072,1.392,1.281,1.631
		c0.209,0.239,0.374,0.418,0.493,0.538l0.448,0.43c0.287,0.287,0.708,0.63,1.263,1.03c0.556,0.4,1.171,0.795,1.846,1.183
		c0.675,0.388,1.461,0.705,2.357,0.95c0.896,0.245,1.768,0.343,2.617,0.296h2.061c0.418-0.036,0.735-0.168,0.95-0.394l0.071-0.09
		c0.048-0.071,0.093-0.182,0.134-0.331c0.042-0.149,0.063-0.314,0.063-0.493c-0.012-0.514,0.027-0.977,0.116-1.389
		c0.089-0.412,0.191-0.723,0.305-0.932c0.114-0.209,0.242-0.385,0.385-0.528c0.143-0.143,0.245-0.23,0.305-0.26
		c0.06-0.03,0.107-0.05,0.143-0.063c0.287-0.096,0.624-0.003,1.013,0.278c0.388,0.281,0.753,0.627,1.093,1.04
		c0.341,0.412,0.75,0.875,1.228,1.389c0.478,0.514,0.896,0.896,1.255,1.147l0.358,0.215c0.239,0.144,0.55,0.275,0.932,0.394
		c0.382,0.119,0.716,0.149,1.003,0.09l4.588-0.072c0.454,0,0.807-0.075,1.057-0.224c0.251-0.149,0.4-0.314,0.448-0.493
		c0.048-0.179,0.051-0.382,0.009-0.61C124.624,72.77,124.582,72.611,124.54,72.522z"/>
</g>
<g>
	<g>
		<g>
			<path fill="#999999" d="M71.829,6.083H57.16c-4.755,0-8.624,3.869-8.624,8.624v14.669c0,4.755,3.869,8.624,8.624,8.624h14.669
				c4.755,0,8.624-3.869,8.624-8.624V14.707C80.453,9.952,76.584,6.083,71.829,6.083z M77.874,29.376
				c0,3.333-2.712,6.045-6.045,6.045H57.16c-3.333,0-6.045-2.712-6.045-6.045V14.707c0-3.333,2.712-6.045,6.045-6.045h14.669
				c3.333,0,6.045,2.712,6.045,6.045V29.376z"/>
		</g>
	</g>
	<g>
		<g>
			<path fill="#999999" d="M71.638,20.928c-0.227-1.53-0.925-2.917-2.019-4.011c-1.094-1.094-2.481-1.792-4.011-2.019
				c-0.697-0.103-1.403-0.103-2.1,0c-1.891,0.28-3.56,1.28-4.698,2.816c-1.139,1.535-1.612,3.423-1.331,5.313
				c0.28,1.891,1.28,3.56,2.816,4.698c1.246,0.925,2.725,1.41,4.248,1.41c0.353,0,0.709-0.026,1.065-0.079
				c1.891-0.28,3.56-1.28,4.698-2.816C71.445,24.706,71.918,22.819,71.638,20.928z M65.23,26.507
				c-1.21,0.18-2.417-0.123-3.399-0.852c-0.982-0.729-1.622-1.796-1.801-3.006c-0.179-1.21,0.123-2.417,0.852-3.399
				c0.729-0.982,1.796-1.622,3.006-1.801c0.223-0.033,0.447-0.05,0.671-0.05c0.224,0,0.449,0.017,0.672,0.05
				c2.009,0.298,3.559,1.848,3.857,3.857C69.457,23.804,67.727,26.137,65.23,26.507z"/>
		</g>
	</g>
	<g>
		<g>
			<path fill="#999999" d="M73.474,13.062c-0.24-0.24-0.572-0.378-0.912-0.378c-0.339,0-0.672,0.138-0.912,0.378
				c-0.24,0.24-0.378,0.572-0.378,0.912c0,0.34,0.138,0.672,0.378,0.912c0.24,0.24,0.572,0.378,0.912,0.378
				c0.339,0,0.672-0.138,0.912-0.378c0.24-0.24,0.378-0.572,0.378-0.912C73.852,13.634,73.714,13.302,73.474,13.062z"/>
		</g>
	</g>
</g>
<g>
	<g>
		<g>
			<path fill="#FFFFFF" d="M71.829,49.083H57.16c-4.755,0-8.624,3.869-8.624,8.624v14.669c0,4.755,3.869,8.624,8.624,8.624h14.669
				c4.755,0,8.624-3.869,8.624-8.624V57.707C80.453,52.952,76.584,49.083,71.829,49.083z M77.874,72.376
				c0,3.333-2.712,6.045-6.045,6.045H57.16c-3.333,0-6.045-2.712-6.045-6.045V57.707c0-3.333,2.712-6.045,6.045-6.045h14.669
				c3.333,0,6.045,2.712,6.045,6.045V72.376z"/>
		</g>
	</g>
	<g>
		<g>
			<path fill="#FFFFFF" d="M71.638,63.928c-0.227-1.53-0.925-2.917-2.019-4.011c-1.094-1.094-2.481-1.792-4.011-2.019
				c-0.697-0.103-1.403-0.103-2.1,0c-1.891,0.28-3.56,1.28-4.698,2.816c-1.139,1.535-1.612,3.423-1.331,5.313
				c0.28,1.891,1.28,3.56,2.816,4.698c1.246,0.925,2.725,1.41,4.248,1.41c0.353,0,0.709-0.026,1.065-0.079
				c1.891-0.28,3.56-1.28,4.698-2.816C71.445,67.706,71.918,65.819,71.638,63.928z M65.23,69.507
				c-1.21,0.18-2.417-0.123-3.399-0.852c-0.982-0.729-1.622-1.796-1.801-3.006c-0.179-1.21,0.123-2.417,0.852-3.399
				c0.729-0.982,1.796-1.622,3.006-1.801c0.223-0.033,0.447-0.05,0.671-0.05c0.224,0,0.449,0.017,0.672,0.05
				c2.009,0.298,3.559,1.848,3.857,3.857C69.457,66.804,67.727,69.137,65.23,69.507z"/>
		</g>
	</g>
	<g>
		<g>
			<path fill="#FFFFFF" d="M73.474,56.062c-0.24-0.24-0.572-0.378-0.912-0.378c-0.339,0-0.672,0.138-0.912,0.378
				c-0.24,0.24-0.378,0.572-0.378,0.912c0,0.34,0.138,0.672,0.378,0.912c0.24,0.24,0.572,0.378,0.912,0.378
				c0.339,0,0.672-0.138,0.912-0.378c0.24-0.24,0.378-0.572,0.378-0.912C73.852,56.634,73.714,56.302,73.474,56.062z"/>
		</g>
	</g>
</g>
<g>
	<path id="f_3_" fill="#FFFFFF" d="M24.053,81.072L24.01,66.443l4.908-0.014l0.72-5.705l-5.645,0.016l-0.011-3.64
		c-0.005-1.651,0.448-2.777,2.818-2.784l3.017-0.01l-0.015-5.101c-0.522-0.066-2.314-0.217-4.398-0.21
		c-4.353,0.013-7.326,2.679-7.312,7.557l0.012,4.205l-4.923,0.014l0.017,5.703l4.923-0.014l0.043,14.629L24.053,81.072z"/>
</g>
</svg>
